<?xml version="1.0" encoding="utf-8"?>
<svg xmlns="http://www.w3.org/2000/svg" width="6.36335in" height="1.55in" viewBox="0 0 1909 465">
  <defs>
    <linearGradient id="diagonalGradient" x1="0%" y1="30%" x2="100%" y2="50%">
      <stop offset="0" style="stop-color:#00a2c3; stop-opacity:1"/>
      <stop offset="0.07" style="stop-color:#006ab6; stop-opacity:1"/>
      <stop offset="0.16" style="stop-color:#003ca8; stop-opacity:1"/>
      <stop offset="0.3" style="stop-color:#1850af; stop-opacity:1"/>
      <stop offset="0.4" style="stop-color:#1d4cac; stop-opacity:1"/>
      <stop offset="0.6" style="stop-color:#3862d0; stop-opacity:1"/>
      <stop offset="0.88" style="stop-color:#0642a8; stop-opacity:1"/>
      <stop offset="1" style="stop-color:#0654b3; stop-opacity:1"/>
    </linearGradient>
  </defs>
  <path id="Selection" fill="url(#diagonalGradient)" stroke="none" stroke-width="1" d="M 192 3.43 C 215.88 0.48 240.08 10.31 257 27.01 C 274.03 43.84 271.24 57.85 289 56.96 C 295.29 56.64 304.13 51.82 320 52 C 356.11 52.41 386.2 79.11 395.71 113 C 397.08 117.89 397.861 127.03 397.851 132 C 397.841 136.92 396.5 144.74 395.45 150 C 395.45 150 387.47 185 387.47 185 C 387.47 185 380.58 217 380.58 217 C 380.58 217 365.11 285 365.11 285 C 361.97 298.67 353.02 332.03 353 344 C 352.97 364.21 354.42 385.41 348.56 405 C 340.34 432.5 317.39 452.63 290 459.47 C 282.09 461.45 282.61 461.99 274 462 C 274 462 128 462 128 462 C 119.57 461.99 119.87 461.47 112 459.65 C 76.97 451.57 50.06 419.22 50 383 C 50 383 50 348 50 348 C 49.99 338.82 47.67 331.81 45.65 323 C 45.65 323 37.37 287 37.37 287 C 37.37 287 22.42 221 22.42 221 C 22.42 221 19.41 206 19.41 206 C 19.41 206 9.53 163 9.53 163 C 8.05 156.99 3.08 136.04 3.08 131 C 3.08 126.98 4.62 118.05 5.63 114 C 14.16 79.71 46.11 52.42 82 52 C 98.96 51.81 106.66 56.64 113 56.96 C 129.28 57.78 128.05 45.04 142.75 29.17 C 155.9 14.97 173.07 6.58 192 3.43 Z M 186 24.28 C 165.89 28.71 149.1 44.39 143.02 64 C 140.92 70.81 140.46 91.66 129 88.92 C 126.29 88.28 122.44 84.75 120 83.04 C 114.5 79.18 107.6 75 101 73.51 C 93.77 71.88 86.36 71.92 79 72 C 61.3 72.21 45.55 81 34.9 95 C 32.23 98.51 29.17 102.95 27.46 107 C 23.86 115.56 22.9 123.83 23 133 C 23.08 139.15 25.66 149.68 27.12 156 C 27.12 156 35.34 191 35.34 191 C 35.34 191 41.88 222 41.88 222 C 41.88 222 57.12 288 57.12 288 C 57.12 288 63.2 315 63.2 315 C 64.12 319.56 65.41 326.27 69.22 329.3 C 72.8 332.14 77.69 331.99 82 332 C 82 332 100 332 100 332 C 111.73 331.84 114.12 326.67 114 316 C 113.88 306.03 111.54 300.17 109.6 291 C 109.6 291 107.54 279 107.54 279 C 107.54 279 105.04 270 105.04 270 C 105.04 270 103.54 261 103.54 261 C 103.54 261 100.28 247 100.28 247 C 98.73 239.47 94.31 226.88 105 223.84 C 109.01 222.7 112.7 225.84 114.64 229.04 C 117.08 233.09 119.25 245.71 120.42 251 C 120.42 251 132.11 305 132.11 305 C 133.71 311.41 134.15 321.91 137.85 326.89 C 141.71 332.1 147.17 331.99 153 332 C 153 332 176 332 176 332 C 180.93 331.94 185.95 331.34 188.91 326.81 C 191.16 323.39 190.99 318.92 191 315 C 191 315 191 278 191 278 C 191 278 191 238 191 238 C 191.18 223.61 202.78 218.64 209.15 229.02 C 211.22 232.39 210.99 236.2 211 240 C 211 240 211 317 211 317 C 211.13 327.51 215.49 331.87 226 332 C 226 332 251 332 251 332 C 267.96 331.79 266.63 320.85 269.36 308 C 269.36 308 279.21 262 279.21 262 C 279.21 262 286.92 230.04 286.92 230.04 C 288.87 226.15 293.39 222.13 297.98 224.22 C 307.43 228.5 303.15 240.25 301.69 248 C 301.69 248 299.21 258 299.21 258 C 299.21 258 291.8 294 291.8 294 C 290.33 301.26 288.09 308.57 288 316 C 287.88 326.67 290.27 331.84 302 332 C 302 332 320 332 320 332 C 325.17 331.99 330.68 332.14 334.35 327.78 C 338.09 323.34 338.97 313.72 340.37 308 C 340.37 308 350.88 262 350.88 262 C 350.88 262 370.66 174 370.66 174 C 372.74 164.39 378.89 142.62 379 134 C 379.22 114.8 374.41 100.46 360 87.09 C 355.06 82.5 347.37 77.38 341 75.09 C 331.94 71.83 325.32 71.99 316 72 C 306.31 72.02 297.46 73.45 289 78.45 C 289 78.45 273 88.92 273 88.92 C 268.43 90.01 264.45 85.86 262.88 82 C 261.5 78.63 261.14 72.73 260.33 69 C 258.82 62.02 255.26 53.78 251.07 48 C 242.98 36.84 230.71 27.33 217 24.28 C 213.18 23.73 204.131 21.762 199.881 22.042 C 199.881 22.042 186 24.28 186 24.28 Z M 595 271 C 590.99 271.01 585.52 270.82 582.27 273.56 C 577.9 277.26 577.01 285.66 577 291 C 577 291 577 330 577 330 C 577 331.77 577.14 335.06 576.43 336.62 C 575.02 339.7 565.3 344.17 562 345.46 C 547.96 350.94 533.04 353.82 518 354 C 480.19 354.44 450.32 332.41 437.66 297 C 434.12 287.1 432.02 277.6 432 267 C 431.95 236.89 445.8 203.81 474 189.72 C 479.04 187.2 484.57 185.88 490 184.53 C 497.91 182.55 497.4 182.01 506 182 C 526.01 181.97 554.14 185.26 567.62 202 C 572.52 208.09 574.8 220.24 574.99 228 C 575.09 232.17 575.72 239.27 569.13 237.67 C 565.73 236.84 564.97 232.87 564 230 C 561.83 223.55 560.19 218.62 556.07 213 C 545.45 198.5 530 194.8 513 195 C 492.21 195.25 476.6 208.95 467.83 227 C 460.66 241.75 460.82 259.98 461 276 C 461.26 297.73 468.15 320.41 487 333.01 C 499.74 341.53 518.4 340.86 533 339.05 C 537.35 338.51 547.73 335.78 549.98 331.87 C 551.2 329.75 551 326.41 551 324 C 551.03 310.43 548.36 283.36 557.52 273.19 C 561.42 268.85 568.48 265.84 574 264.18 C 579.57 262.51 588.47 262.86 595 262 C 595 262 595 271 595 271 Z M 870 195 C 869.6 192.62 868.55 188.8 870.74 186.99 C 872.15 185.83 875.24 186.01 877 186 C 887.1 185.94 887.18 185.98 897 187.68 C 899.76 188.16 902.24 188.06 905 189.02 C 912.81 191.74 913.72 197.03 915.33 204 C 916.87 210.6 916.99 208.75 917 216 C 917 216 917 348.86 917 348.86 C 912.74 349.76 906.26 350.94 902.3 348.86 C 898.77 346.73 897.07 341.78 892.99 341.59 C 890.13 341.46 884.09 346.07 881 347.53 C 877.32 349.28 866.18 351.5 862 351.82 C 858.77 352.06 856.13 351.43 853 350.8 C 838.11 347.82 828.18 338.71 822.01 325 C 811.62 301.89 812.07 267.83 827.61 247 C 833.73 238.8 844.87 231.96 855 230.13 C 855 230.13 864 230.13 864 230.13 C 874.42 230.02 881.12 233.5 884.98 233.53 C 889.78 233.57 889.93 229.71 890 226 C 890 226 890 213 890 213 C 889.92 206.35 889.13 198.65 882 195.89 C 878.95 194.71 873.38 195 870 195 Z M 1128 186 C 1128 186 1145 186 1145 186 C 1147.37 186 1150.72 185.8 1152.79 187.02 C 1156.24 189.07 1160.81 200.93 1162.71 205 C 1162.71 205 1190.78 266 1190.78 266 C 1190.78 266 1204.08 295 1204.08 295 C 1205.32 297.84 1207.92 303.41 1211.91 301.83 C 1214.42 300.84 1216 297.29 1217.08 295 C 1217.08 295 1225.91 275 1225.91 275 C 1225.91 275 1256.84 207 1256.84 207 C 1258.87 202.58 1263.65 189.13 1267.21 187.02 C 1269.28 185.8 1272.63 186 1275 186 C 1275 186 1284 186 1284 186 C 1291.49 186.14 1290.99 188.26 1291 195 C 1291 195 1291 303 1291 303 C 1291 303 1291.91 315 1291.91 315 C 1292.7 326.48 1292.87 343.69 1305 349.83 C 1307.75 351.21 1311.01 350.99 1314 351 C 1314 351 1314 360 1314 360 C 1307.95 360 1300.86 359.85 1295 358.29 C 1291.19 357.27 1287.38 356.15 1284 354.1 C 1265.41 342.81 1265 322.29 1265 303 C 1265 303 1265 278 1265 278 C 1265 278 1265 245 1265 245 C 1264.95 242.31 1264.56 236.33 1260.17 238.17 C 1257.72 239.19 1256.29 242.72 1255.34 245 C 1255.34 245 1248.07 261 1248.07 261 C 1248.07 261 1219.85 324 1219.85 324 C 1219.85 324 1210.1 344.96 1210.1 344.96 C 1208.62 347.41 1206.44 350.2 1203.17 349.16 C 1200.24 348.22 1198.75 344.55 1197.59 342 C 1197.59 342 1189.85 325 1189.85 325 C 1189.85 325 1157.14 254 1157.14 254 C 1157.14 254 1149.45 237.06 1149.45 237.06 C 1148.43 235.25 1146.67 233.03 1144.3 234.17 C 1141.58 235.47 1142.01 240.49 1142 243 C 1142 243 1142 341 1142 341 C 1142 342.94 1142.25 346.72 1141.01 348.26 C 1139.1 350.62 1130.9 350.62 1128.99 348.26 C 1127.75 346.72 1128 342.94 1128 341 C 1128 341 1128 186 1128 186 Z M 610 264 C 610 255.54 609.57 248.06 615.39 241.04 C 621.37 233.83 627.66 233.21 636 231.75 C 636 231.75 642 230.13 642 230.13 C 642 230.13 647 230.13 647 230.13 C 659.91 229.92 669.64 229.78 681 237.3 C 694.1 245.96 697.08 260.51 698.09 275 C 698.09 275 699 287 699 287 C 699 287 699 340 699 340 C 699 342.16 699.22 345.76 697.98 347.57 C 695.54 351.11 686.59 350.43 683.46 348.18 C 680.35 345.94 678.54 341.09 674 341.57 C 670.5 341.94 666.97 346.12 660 348.61 C 646.47 353.45 631.43 352.62 619 344.95 C 604.86 336.23 599.23 315.26 608.14 301 C 613.13 293.03 623.9 286.52 633 284.46 C 647.87 281.11 649.27 281.27 664 281 C 674.62 280.8 672.47 275.93 672 268 C 671.4 258.05 666.36 246.91 656 244.34 C 647.11 242.13 635.22 244.29 629.51 252.02 C 626.84 255.62 625.84 261.27 623.45 262.98 C 621.3 264.51 612.94 264 610 264 Z M 729 349 C 729 349 729 260 729 260 C 728.99 254.43 729.01 247.29 723.89 243.74 C 719.7 240.83 708.19 243.74 710.33 235.14 C 711.28 231.34 715.98 232.01 719 232 C 719 232 728 232 728 232 C 732.25 232.05 740.22 232.88 743.99 234.65 C 748.54 236.78 750.39 239.82 753.04 240.11 C 755.78 240.4 761.98 235.46 765 234.23 C 775.4 228.9 787.87 227.92 797.91 234.23 C 801.26 236.66 806.6 242.51 805.3 246.9 C 804.4 249.93 797.47 254.92 794.28 253.88 C 792.37 253.24 790.79 250.7 786 249.53 C 783.1 248.82 777.18 248.97 774 249 C 762.6 249.14 756.02 254.29 756 266 C 756 266 756 349 756 349 C 747.61 350.5 737.39 350.5 729 349 Z M 983 230.52 C 991.52 229.17 996.82 229.95 1005 231.97 C 1021.58 236.05 1029.95 243.23 1036.56 259 C 1040.06 267.34 1041.06 278.95 1041 288 C 1040.98 290.35 1041.19 293.61 1039.4 295.4 C 1037.48 297.32 1033.54 296.99 1031 297 C 1031 297 1002 297 1002 297 C 1002 297 976 297 976 297 C 965.89 297.19 968.06 303.4 969.63 311 C 971.68 320.95 979.25 334.63 990 336.79 C 1000.4 338.88 1011.49 337.39 1019.99 330.87 C 1024.92 327.08 1027.76 322.77 1029.44 321.64 C 1033.18 319.12 1037.32 322.48 1036.29 327 C 1035.51 330.48 1031.79 334.47 1029.35 337 C 1020.67 345.97 1004.5 352.47 992 351.96 C 988.39 351.82 986.43 351.19 983 350.42 C 959.78 345.23 947.37 329.65 942.04 307 C 940.55 300.66 940.92 290.75 941 284 C 941.15 271.73 948.33 254.23 956.47 245.17 C 963.63 237.19 972.87 233.21 983 230.52 Z M 1326 264 C 1326 255.54 1325.57 248.06 1331.39 241.04 C 1337.28 233.93 1343.78 233.24 1352 231.49 C 1368.1 228.07 1385.02 228.81 1398.96 238.38 C 1406.67 243.68 1412.13 255.93 1413.56 265 C 1413.56 265 1414.13 274 1414.13 274 C 1414.79 279.91 1415.98 277.37 1416 287 C 1416 287 1416 340 1416 340 C 1416 342.16 1416.22 345.76 1414.98 347.57 C 1412.76 350.8 1403.38 350.62 1400.3 348.83 C 1396.77 346.78 1394.78 341.15 1390 341.78 C 1390 341.78 1376 348.87 1376 348.87 C 1362.05 354.11 1347.81 352.6 1335.01 344.99 C 1320.81 336.54 1315.33 315.09 1324.14 301 C 1329.16 292.98 1339.86 286.57 1349 284.46 C 1363.24 281.18 1364.51 281.1 1379 281 C 1388.41 280.94 1388.05 278.53 1388 270 C 1387.93 257.8 1382.62 246.91 1370 244.04 C 1362.4 242.31 1350.22 245.53 1345.51 252.02 C 1342.36 256.34 1343.2 260.79 1339.72 262.98 C 1337.31 264.49 1329.14 264 1326 264 Z M 1426.03 232 C 1435.26 232 1449.4 231.31 1458 233.3 C 1465.76 235.09 1468.76 239.41 1472.04 239.4 C 1475.47 239.4 1479.72 234.83 1487 232.43 C 1487 232.43 1495 230.21 1495 230.21 C 1506.9 228.54 1525.98 232.42 1534.48 241.33 C 1545.88 253.26 1546 268.68 1546 284 C 1546 284 1546 323 1546 323 C 1546 323 1546 343 1546 343 C 1545.96 344.96 1546.15 347.47 1544.43 348.83 C 1542.62 350.25 1538.26 350 1536 350 C 1536 350 1527 350 1527 350 C 1515.41 349.78 1519.98 343.11 1520 331 C 1520 331 1520 279 1520 279 C 1519.99 272.59 1518.85 262.58 1515.7 257 C 1508.64 244.54 1493.97 241.49 1482 248.9 C 1479.07 250.72 1476.23 252.72 1474.85 256.02 C 1473.85 258.41 1474 261.43 1474 264 C 1474 264 1474 349 1474 349 C 1467.11 350.24 1461.94 350.09 1455 350 C 1452.85 349.97 1449.48 350.11 1447.99 348.26 C 1446.75 346.72 1447 342.94 1447 341 C 1447 341 1447 260 1447 260 C 1446.99 254.94 1446.27 247.1 1441.78 243.85 C 1435.49 239.32 1426.85 245.84 1426.03 236.98 C 1426.03 236.98 1426.03 232 1426.03 232 Z M 1666 230 C 1666 232.25 1666.31 236.62 1664.98 238.42 C 1663.43 240.52 1658.8 240.68 1658.71 245.02 C 1658.62 248.6 1663.03 252.77 1664.78 257 C 1666.42 260.98 1666.05 267.6 1666 272 C 1665.91 278.98 1664.8 282.03 1661.19 288 C 1655.17 297.95 1650.38 299.59 1640 302.71 C 1636.92 303.64 1635.39 304.45 1632 304.96 C 1632 304.96 1623 304.96 1623 304.96 C 1623 304.96 1612 306 1612 306 C 1607.71 306.02 1603.68 305.56 1600.15 308.57 C 1597.25 311.04 1596.33 314.46 1600.15 316.57 C 1603.45 318.39 1620.43 318.93 1625 319 C 1630.99 319.1 1630.14 319.84 1635 320.76 C 1635 320.76 1644 322.37 1644 322.37 C 1660.56 327.24 1673.57 338.81 1673.99 357 C 1674.17 365.04 1672.72 375.47 1667.32 381.72 C 1660.09 390.08 1654.37 392.69 1644 395.17 C 1644 395.17 1635 397.78 1635 397.78 C 1635 397.78 1610 397.78 1610 397.78 C 1602.58 397.96 1600.9 397.21 1594 395.41 C 1594 395.41 1586 393.39 1586 393.39 C 1572.06 387.89 1564.5 374.53 1563.51 360 C 1562.99 352.25 1566.65 342.65 1572.11 337.17 C 1575.36 333.9 1582.98 329.56 1583.56 325 C 1584.04 321.13 1580.27 318.17 1580.2 313 C 1580.11 306.94 1585.17 303.31 1583.39 298 C 1582.46 295.23 1578.8 291.8 1576.95 289 C 1573.68 284.05 1570.04 272.89 1570.08 267 C 1570.1 263.72 1571.38 260.24 1572.08 257 C 1576.04 238.76 1595.74 230.03 1613 230 C 1613 230 1647 230 1647 230 C 1647 230 1666 230 1666 230 Z M 1727 230.72 C 1742.75 227.24 1764.52 232.94 1775.25 245.29 C 1779.49 250.17 1780.2 253.33 1782.58 259 C 1787.01 269.57 1787.07 276.9 1787 288 C 1786.98 290.35 1787.19 293.61 1785.4 295.4 C 1783.48 297.32 1779.54 296.99 1777 297 C 1777 297 1724 297 1724 297 C 1721.52 297 1717.46 296.68 1715.61 298.6 C 1713.91 300.37 1714.47 302.83 1714.72 305 C 1715.36 310.42 1716.95 316.14 1719.49 321 C 1727.16 335.65 1732.78 337.18 1748 337 C 1757.21 336.89 1763.33 333.42 1769.7 326.83 C 1772.9 323.53 1776.41 317.62 1781.68 321.89 C 1786.3 325.62 1778.69 334.02 1775.91 336.99 C 1765.88 347.67 1751.29 352.19 1737 352 C 1731.51 351.92 1730.14 351.12 1725 349.78 C 1685.82 339.56 1677.69 286.44 1695.05 255 C 1703.06 240.49 1712.04 235.67 1727 230.72 Z M 1856 230.61 C 1865.3 228.85 1879.49 229.71 1884.69 239.09 C 1888.66 246.27 1883.36 255.72 1877 253.88 C 1874.8 253.24 1872.57 250.64 1868 249.53 C 1859.83 247.55 1844.66 248.78 1840.17 257.09 C 1838.79 259.66 1839 263.14 1839 266 C 1839 266 1839 281 1839 281 C 1839 281 1838.18 293 1838.18 293 C 1838.18 293 1839 329 1839 329 C 1839 332.95 1839.99 345.73 1837.4 348.26 C 1835.42 350.2 1831.58 349.99 1829 350 C 1829 350 1819 350 1819 350 C 1810.5 349.84 1811.01 346.3 1811 339 C 1811 339 1811 258 1811 258 C 1810.99 251.78 1810.89 245.41 1804 242.74 C 1799.89 241.14 1794.43 243.38 1792.61 238.86 C 1789.94 232.2 1796.72 232.01 1801 232 C 1801 232 1810 232 1810 232 C 1815.18 232.01 1822.27 232.44 1826.99 234.65 C 1831.96 236.97 1833.68 240.4 1838 239.39 C 1841.75 238.51 1844.99 234.11 1856 230.61 Z M 866 243.3 C 839.99 248.39 842.77 280.93 843 301 C 843.05 304.8 843.86 311.26 844.63 315 C 847.13 327.14 853.49 337.66 867 337.99 C 877.61 338.24 889.76 334.63 890 322 C 890 322 890 257 890 257 C 890 254.72 890.21 251.23 888.98 249.28 C 885.95 244.46 871.36 242.78 866 243.3 Z M 989 243.34 C 977.61 245.56 971.77 256.36 969.63 267 C 969.03 269.98 968.01 278.93 970.6 280.98 C 972.08 282.15 975.18 281.99 977 282 C 977 282 1005 282 1005 282 C 1006.99 282 1010.81 282.23 1012.4 280.98 C 1015.82 278.27 1012.56 267.72 1011.8 264 C 1009.18 251.13 1003.2 242.91 989 243.34 Z M 1612 243.46 C 1608.03 244.68 1605.1 245.79 1602.39 249.06 C 1595.16 257.29 1595.26 279.47 1602.39 287.53 C 1606.46 291.95 1611.38 292.93 1617 293 C 1619.7 293.03 1623.43 293.09 1626 292.47 C 1641.26 288.76 1639.14 273.95 1639 262 C 1638.93 256.69 1638.39 252.31 1634.52 248.26 C 1628.77 242.25 1619.65 242.27 1612 243.46 Z M 1735 243.51 C 1722.31 247.36 1719.48 255.05 1716.01 267 C 1715.14 270.03 1713.8 278.77 1716.6 280.98 C 1718.08 282.15 1721.18 281.99 1723 282 C 1723 282 1751 282 1751 282 C 1752.96 282 1756.84 282.23 1758.4 280.98 C 1761.07 278.83 1758.44 267.15 1757.58 264 C 1754.32 252.09 1749.46 242.26 1735 243.51 Z M 658 294.14 C 648.85 295.63 639.05 297.57 633.59 306 C 629.73 311.98 630.47 325.5 635.48 330.62 C 639.7 334.94 645.2 336.23 651 336.68 C 659.23 337.31 669.14 333.15 672.26 325 C 673.07 322.9 672.99 320.23 673 318 C 673 318 673 301 673 301 C 672.97 299.38 673.04 296.94 671.98 295.6 C 670.64 293.9 667.95 294.04 666 294.14 C 666 294.14 658 294.14 658 294.14 Z M 1374 294.14 C 1365.47 295.54 1353.29 298.96 1348.92 307.29 C 1347.98 309.08 1347.33 312.95 1347.18 315 C 1346.26 327.57 1353.3 335.83 1366 336 C 1368.83 336.03 1374.41 336.17 1376.96 335.43 C 1384.62 333.24 1388.91 325.45 1389 318 C 1389 318 1389 301 1389 301 C 1388.97 299.38 1389.04 296.94 1387.98 295.6 C 1386.64 293.9 1383.95 294.04 1382 294.14 C 1382 294.14 1374 294.14 1374 294.14 Z M 1607 332.39 C 1599.68 334.59 1591.8 341.15 1590.14 349 C 1590.14 349 1590.14 362 1590.14 362 C 1590.08 366.67 1590.9 370.03 1593.84 373.83 C 1598.07 379.3 1606.33 381.96 1613 382 C 1622.17 382.06 1629.68 383.11 1637.83 377.94 C 1640.39 376.32 1644.26 372.69 1645.57 369.96 C 1648.99 362.84 1647.46 346.05 1641.53 340.47 C 1634.41 333.76 1616.48 331.11 1607 332.39 Z M 79 352.1 C 75.46 353.54 73.3 354.56 71.45 358.04 C 69.08 362.51 69.93 381 70 387 C 70.36 417.43 95.72 441.86 126 442 C 126 442 275 442 275 442 C 306.49 441.95 331.95 417.77 332 386 C 332.01 381.1 332.47 363.53 331.35 360 C 330.43 357.1 328.66 354.89 325.96 353.45 C 322.87 351.81 319.39 352.01 316 352.1 C 316 352.1 159 352.1 159 352.1 C 159 352.1 107 352.1 107 352.1 C 107 352.1 79 352.1 79 352.1 Z"/>
</svg>