<?xml version="1.0" encoding="utf-8"?>
<svg xmlns="http://www.w3.org/2000/svg" width="1.32334in" height="1.53334in" viewBox="0 0 397 460">
  <defs>
    <linearGradient id="diagonalGradient" x1="0%" y1="30%" x2="100%" y2="50%" gradientTransform="matrix(1.569941, 0.097584, 0.127907, 1.021499, -0.038372, -0.00645)">
      <stop offset="0" style="stop-color:#00a2c3; stop-opacity:1"/>
      <stop offset="0.196" style="stop-color:#006ab6; stop-opacity:1"/>
      <stop offset="0.43" style="stop-color:#003ca8; stop-opacity:1"/>
      <stop offset="1" style="stop-color:#1850af; stop-opacity:1"/>
      <stop offset="1" style="stop-color:#1d4cac; stop-opacity:1"/>
      <stop offset="1" style="stop-color:#3872e0; stop-opacity:1"/>
      <stop offset="1" style="stop-color:#0642a8; stop-opacity:1"/>
      <stop offset="1" style="stop-color:#0654b3; stop-opacity:1"/>
    </linearGradient>
  </defs>
  <path id="Selection" fill="url(#diagonalGradient)" stroke="none" stroke-width="1" d="M 190 0.43 C 213.88 -2.52 238.08 7.31 255 24.01 C 272.03 40.84 269.24 54.85 287 53.96 C 293.29 53.64 302.13 48.82 318 49 C 354.11 49.41 384.2 76.11 393.71 110 C 395.08 114.89 395.573 124.03 395.563 129 C 395.553 133.92 394.5 141.74 393.45 147 C 393.45 147 385.47 182 385.47 182 C 385.47 182 378.58 214 378.58 214 C 378.58 214 363.11 282 363.11 282 C 359.97 295.67 351.02 329.03 351 341 C 350.97 361.21 352.42 382.41 346.56 402 C 338.34 429.5 315.39 449.63 288 456.47 C 280.09 458.45 280.61 458.99 272 459 C 272 459 126 459 126 459 C 117.57 458.99 117.87 458.47 110 456.65 C 74.97 448.57 48.06 416.22 48 380 C 48 380 48 345 48 345 C 47.99 335.82 45.67 328.81 43.65 320 C 43.65 320 35.37 284 35.37 284 C 35.37 284 20.42 218 20.42 218 C 20.42 218 17.41 203 17.41 203 C 17.41 203 7.53 160 7.53 160 C 6.05 153.99 1.08 133.04 1.08 128 C 1.08 123.98 2.62 115.05 3.63 111 C 12.16 76.71 44.11 49.42 80 49 C 96.96 48.81 104.66 53.64 111 53.96 C 127.28 54.78 126.05 42.04 140.75 26.17 C 153.9 11.97 171.07 3.58 190 0.43 Z M 184 21.28 C 163.89 25.71 147.1 41.39 141.02 61 C 138.92 67.81 138.46 88.66 127 85.92 C 124.29 85.28 120.44 81.75 118 80.04 C 112.5 76.18 105.6 72 99 70.51 C 91.77 68.88 84.36 68.92 77 69 C 59.3 69.21 43.55 78 32.9 92 C 30.23 95.51 27.17 99.95 25.46 104 C 21.86 112.56 20.9 120.83 21 130 C 21.08 136.15 23.66 146.68 25.12 153 C 25.12 153 33.34 188 33.34 188 C 33.34 188 39.88 219 39.88 219 C 39.88 219 55.12 285 55.12 285 C 55.12 285 61.2 312 61.2 312 C 62.12 316.56 63.41 323.27 67.22 326.3 C 70.8 329.14 75.69 328.99 80 329 C 80 329 98 329 98 329 C 109.73 328.84 112.12 323.67 112 313 C 111.88 303.03 109.54 297.17 107.6 288 C 107.6 288 105.54 276 105.54 276 C 105.54 276 103.04 267 103.04 267 C 103.04 267 101.54 258 101.54 258 C 101.54 258 98.28 244 98.28 244 C 96.73 236.47 92.31 223.88 103 220.84 C 107.01 219.7 110.7 222.84 112.64 226.04 C 115.08 230.09 117.25 242.71 118.42 248 C 118.42 248 130.11 302 130.11 302 C 131.71 308.41 132.15 318.91 135.85 323.89 C 139.71 329.1 145.17 328.99 151 329 C 151 329 174 329 174 329 C 178.93 328.94 183.95 328.34 186.91 323.81 C 189.16 320.39 188.99 315.92 189 312 C 189 312 189 275 189 275 C 189 275 189 235 189 235 C 189.18 220.61 200.78 215.64 207.15 226.02 C 209.22 229.39 208.99 233.2 209 237 C 209 237 209 314 209 314 C 209.13 324.51 213.49 328.87 224 329 C 224 329 249 329 249 329 C 265.96 328.79 264.63 317.85 267.36 305 C 267.36 305 277.21 259 277.21 259 C 277.21 259 284.92 227.04 284.92 227.04 C 286.87 223.15 291.39 219.13 295.98 221.22 C 305.43 225.5 301.15 237.25 299.69 245 C 299.69 245 297.21 255 297.21 255 C 297.21 255 289.8 291 289.8 291 C 288.33 298.26 286.09 305.57 286 313 C 285.88 323.67 288.27 328.84 300 329 C 300 329 318 329 318 329 C 323.17 328.99 328.68 329.14 332.35 324.78 C 336.09 320.34 336.97 310.72 338.37 305 C 338.37 305 348.88 259 348.88 259 C 348.88 259 368.66 171 368.66 171 C 370.74 161.39 376.89 139.62 377 131 C 377.22 111.8 372.41 97.46 358 84.09 C 353.06 79.5 345.37 74.38 339 72.09 C 329.94 68.83 323.32 68.99 314 69 C 304.31 69.02 295.46 70.45 287 75.45 C 287 75.45 271 85.92 271 85.92 C 266.43 87.01 262.45 82.86 260.88 79 C 259.5 75.63 259.14 69.73 258.33 66 C 256.82 59.02 253.26 50.78 249.07 45 C 240.98 33.84 228.71 24.33 215 21.28 C 211.18 20.73 201.843 19.242 197.593 19.522 C 197.593 19.522 184 21.28 184 21.28 Z M 77 349.1 C 73.46 350.54 71.3 351.56 69.45 355.04 C 67.08 359.51 67.93 378 68 384 C 68.36 414.43 93.72 438.86 124 439 C 124 439 273 439 273 439 C 304.49 438.95 329.95 414.77 330 383 C 330.01 378.1 330.47 360.53 329.35 357 C 328.43 354.1 326.66 351.89 323.96 350.45 C 320.87 348.81 317.39 349.01 314 349.1 C 314 349.1 157 349.1 157 349.1 C 157 349.1 105 349.1 105 349.1 C 105 349.1 77 349.1 77 349.1 Z"/>
</svg>