<?xml version="1.0" encoding="UTF-8" standalone="no"?>
<!DOCTYPE svg PUBLIC "-//W3C//DTD SVG 20010904//EN"
              "http://www.w3.org/TR/2001/REC-SVG-20010904/DTD/svg10.dtd">

<svg xmlns="http://www.w3.org/2000/svg"
  width="13.6389in" height="7.08333in"
  viewBox="0 0 982 510">
  <linearGradient id="diagonalGradient" x1="40%" y1="10%" x2="100%" y2="80%">
    <stop offset="0" style="stop-color:#00a2c3; stop-opacity:1"/>
    <stop offset="0.13" style="stop-color:#006ab6; stop-opacity:1"/>
    <stop offset="0.19" style="stop-color:#003ca8; stop-opacity:1"/>
    <stop offset="0.3" style="stop-color:#1850af; stop-opacity:1"/>
    <stop offset="0.4" style="stop-color:#1d4cac; stop-opacity:1"/>
    <stop offset="0.6" style="stop-color:#3862d0; stop-opacity:1"/>
    <stop offset="0.88" style="stop-color:#0642a8; stop-opacity:1"/>
    <stop offset="1" style="stop-color:#0654b3; stop-opacity:1"/>
  </linearGradient>
  <path id="Selection"
        fill="url(#diagonalGradient)" stroke="none" stroke-width="1"
        d="M 487.00,0.44
           C 503.83,-1.72 521.75,3.89 533.71,16.17
             533.71,16.17 548.18,34.83 548.18,34.83
             552.37,37.21 558.63,34.87 563.00,33.89
             567.76,32.81 571.18,32.95 576.00,33.00
             604.75,33.34 629.63,60.58 628.99,89.00
             628.99,89.00 621.42,126.00 621.42,126.00
             621.42,126.00 604.58,201.00 604.58,201.00
             602.47,210.52 598.04,226.02 598.00,235.00
             597.95,245.56 598.90,260.10 596.24,270.00
             589.81,294.01 568.95,310.96 544.00,311.00
             544.00,311.00 445.00,311.00 445.00,311.00
             411.37,310.95 391.05,282.73 391.00,251.00
             391.00,251.00 391.00,234.00 391.00,234.00
             390.98,223.53 386.11,205.85 383.65,195.00
             383.65,195.00 368.79,129.00 368.79,129.00
             368.79,129.00 360.18,88.00 360.18,88.00
             360.17,59.99 384.59,33.34 413.00,33.00
             417.98,32.95 422.09,32.78 427.00,33.89
             431.20,34.83 436.85,37.05 440.90,34.82
             445.16,32.49 445.92,26.79 453.09,19.00
             462.74,8.53 473.09,3.04 487.00,0.44 Z
           M 490.00,17.29
           C 476.15,19.59 465.86,26.00 459.63,39.00
             455.21,48.23 457.75,57.13 449.98,60.81
             445.13,63.10 440.77,58.26 437.00,55.75
             430.94,51.70 425.25,50.09 418.00,50.00
             413.82,49.95 410.09,49.85 406.00,50.92
             389.45,55.26 376.07,71.48 377.09,89.00
             377.09,89.00 385.35,127.00 385.35,127.00
             385.35,127.00 399.87,191.00 399.87,191.00
             399.87,191.00 404.21,210.00 404.21,210.00
             404.90,213.15 405.54,217.10 408.28,219.15
             411.08,221.25 415.65,220.99 419.00,221.00
             419.00,221.00 424.00,221.00 424.00,221.00
             428.74,220.93 433.16,220.41 434.56,214.98
             435.45,211.49 433.25,202.77 432.42,199.00
             432.42,199.00 425.58,167.00 425.58,167.00
             424.20,160.75 420.66,149.07 431.00,148.19
             439.47,147.47 441.20,161.02 442.40,167.00
             442.40,167.00 450.12,203.00 450.12,203.00
             451.04,207.02 451.98,214.83 454.51,217.77
             457.40,221.14 460.97,220.98 465.00,221.00
             471.18,221.03 482.47,222.83 485.26,215.96
             486.13,213.82 486.00,210.34 486.00,208.00
             486.00,208.00 486.00,183.00 486.00,183.00
             486.00,183.00 486.00,161.00 486.00,161.00
             486.05,157.35 486.21,154.19 488.65,151.21
             493.70,145.05 500.39,148.39 502.66,155.00
             504.39,160.04 504.00,167.61 504.00,173.00
             504.00,173.00 504.00,202.00 504.00,202.00
             504.00,212.53 501.15,220.81 515.00,221.00
             519.49,221.06 530.37,221.82 533.78,219.26
             537.34,216.59 537.92,210.16 538.88,206.00
             538.88,206.00 546.20,172.00 546.20,172.00
             547.07,167.69 548.98,156.29 550.93,153.02
             552.77,149.94 556.22,147.15 559.98,148.50
             568.92,151.72 564.85,163.36 563.35,170.00
             563.35,170.00 555.80,205.00 555.80,205.00
             555.11,208.64 554.04,215.36 556.74,218.35
             559.87,221.83 568.56,221.06 573.00,221.00
             576.28,220.95 579.14,220.94 581.72,218.57
             585.47,215.14 588.32,197.68 589.58,192.00
             589.58,192.00 605.42,122.00 605.42,122.00
             607.48,112.73 611.89,97.96 612.00,89.00
             612.26,65.43 596.39,49.97 573.00,50.00
             565.38,50.01 559.55,51.20 553.00,55.39
             548.90,58.01 544.33,63.44 539.09,60.67
             532.27,57.07 534.40,48.46 529.87,39.00
             522.29,23.20 507.00,15.68 490.00,17.29 Z
           M 414.02,238.14
           C 405.76,241.93 407.67,253.67 408.73,261.00
             411.57,280.72 424.64,293.97 445.00,294.00
             445.00,294.00 545.00,294.00 545.00,294.00
             561.56,293.97 575.78,283.36 579.76,267.00
             581.31,260.63 581.09,254.51 581.00,248.00
             580.96,245.06 581.02,241.83 578.57,239.74
             576.16,237.69 571.99,238.00 569.00,238.14
             569.00,238.14 467.00,238.14 467.00,238.14
             467.00,238.14 414.02,238.14 414.02,238.14 Z
           M 112.00,417.00
           C 111.98,418.80 112.18,421.80 111.01,423.26
             108.72,426.12 103.82,423.64 101.15,430.04
             99.20,434.70 100.01,454.72 100.00,461.00
             100.00,463.38 100.20,466.71 98.98,468.79
             97.41,471.45 92.80,473.41 90.00,474.55
             82.22,477.70 72.40,479.96 64.00,480.00
             51.80,480.06 44.49,480.05 33.00,474.68
             17.00,467.19 5.16,450.35 2.32,433.00
             2.32,433.00 1.71,425.00 1.71,425.00
             1.71,425.00 1.71,418.00 1.71,418.00
             1.71,418.00 2.32,406.00 2.32,406.00
             4.89,390.61 15.22,375.76 29.00,368.49
             42.90,361.16 64.53,361.57 79.00,367.06
             84.79,369.26 91.48,372.65 94.86,378.01
             98.85,384.36 98.00,394.66 98.00,402.00
             85.96,401.86 93.13,397.38 83.47,385.00
             76.94,376.62 69.26,374.05 59.00,374.00
             55.03,373.98 51.84,373.81 48.00,375.10
             27.15,382.10 21.97,403.55 22.00,423.00
             22.02,436.56 25.32,452.41 36.04,461.67
             43.82,468.39 51.27,469.11 61.00,469.00
             64.69,468.95 66.38,468.77 70.00,467.99
             73.07,467.32 77.37,466.29 79.40,463.73
             81.16,461.51 80.98,458.66 81.00,456.00
             81.05,448.41 79.84,433.31 83.28,427.02
             88.44,417.56 102.58,417.00 112.00,417.00 Z
           M 309.00,398.00
           C 309.00,392.26 309.74,380.59 305.57,376.31
             301.66,372.30 296.36,375.61 294.62,371.69
             292.47,366.85 297.72,366.06 301.00,366.00
             306.13,365.91 318.96,366.26 322.78,369.51
             327.44,373.48 327.99,387.03 328.00,393.00
             328.00,393.00 328.00,421.00 328.00,421.00
             328.00,421.00 327.01,436.00 327.01,436.00
             327.01,436.00 328.00,450.00 328.00,450.00
             328.00,450.00 328.00,470.00 328.00,470.00
             327.90,475.01 327.55,476.90 322.00,476.97
             320.41,476.99 318.57,476.85 317.09,476.26
             314.26,475.14 312.89,472.55 309.96,472.87
             309.96,472.87 302.00,476.44 302.00,476.44
             297.46,478.12 293.72,478.02 289.00,478.00
             284.19,477.98 280.45,477.74 276.00,475.60
             254.39,465.19 253.23,423.07 266.93,406.17
             278.48,391.92 293.43,395.90 309.00,398.00 Z
           M 468.00,477.00
           C 468.00,477.00 468.00,393.00 468.00,393.00
             468.00,393.00 468.00,373.00 468.00,373.00
             468.04,371.05 467.90,368.37 469.60,367.02
             471.36,365.62 477.63,365.97 480.00,366.00
             489.62,366.14 487.82,368.89 495.24,384.00
             495.24,384.00 510.31,417.00 510.31,417.00
             510.31,417.00 524.00,446.00 524.00,446.00
             524.00,446.00 539.72,411.00 539.72,411.00
             539.72,411.00 550.15,388.00 550.15,388.00
             551.84,384.10 557.79,369.70 560.39,367.60
             562.95,365.53 575.83,364.89 577.98,367.60
             579.23,369.19 579.00,373.01 578.96,375.00
             578.96,375.00 578.96,392.00 578.96,392.00
             578.96,392.00 578.04,403.00 578.04,403.00
             578.04,403.00 579.00,415.00 579.00,415.00
             579.00,415.00 579.00,449.00 579.00,449.00
             579.02,460.00 580.21,475.19 594.00,476.00
             594.00,476.00 594.00,484.00 594.00,484.00
             584.36,484.00 574.72,484.07 567.33,476.67
             561.82,471.17 560.09,462.51 560.00,455.00
             560.00,455.00 560.00,398.00 560.00,398.00
             555.93,402.26 553.75,409.60 551.22,415.00
             551.22,415.00 532.77,456.00 532.77,456.00
             532.77,456.00 526.42,470.00 526.42,470.00
             525.39,472.33 524.39,475.37 521.79,476.38
             514.84,479.08 510.21,463.79 508.15,459.00
             508.15,459.00 480.00,396.00 480.00,396.00
             480.00,396.00 479.00,411.00 479.00,411.00
             479.00,411.00 479.00,455.00 479.00,455.00
             479.00,455.00 479.00,470.00 479.00,470.00
             479.00,470.00 477.40,475.98 477.40,475.98
             477.40,475.98 468.00,477.00 468.00,477.00 Z
           M 121.00,419.00
           C 121.00,413.30 120.34,406.81 124.42,402.21
             128.09,398.07 133.77,396.95 139.00,396.28
             150.31,394.83 164.37,394.13 172.90,403.04
             184.43,415.09 180.82,440.03 181.00,456.00
             181.12,466.26 183.21,464.67 181.00,477.00
             173.88,477.00 169.59,478.34 166.00,471.00
             162.71,472.84 159.55,475.13 156.00,476.44
             148.88,479.08 135.90,478.65 129.00,475.48
             118.77,470.79 116.88,463.25 117.00,453.00
             117.08,446.67 118.25,442.68 123.09,438.21
             131.66,430.30 150.75,429.00 162.00,429.00
             162.00,425.39 162.16,422.56 161.24,419.00
             158.91,409.94 153.92,404.43 144.00,406.68
             141.66,407.21 139.08,408.12 137.21,409.65
             133.32,412.83 133.58,416.98 130.59,418.43
             128.90,419.24 123.12,419.00 121.00,419.00 Z
           M 642.00,429.00
           C 641.91,419.06 639.11,404.90 626.00,406.65
             624.25,406.89 621.57,407.51 620.02,408.31
             614.00,411.40 613.86,417.11 611.30,419.01
             610.44,419.65 599.23,423.44 600.18,413.00
             600.60,408.31 602.39,403.60 606.10,400.56
             610.09,397.29 615.08,396.56 620.00,395.87
             631.54,394.25 646.48,394.17 654.61,404.04
             659.48,409.94 660.34,416.77 661.28,424.00
             661.28,424.00 662.00,477.00 662.00,477.00
             649.50,477.00 650.61,477.94 644.00,471.00
             634.91,481.31 612.93,481.02 603.10,471.79
             593.38,462.66 594.19,444.45 605.00,436.64
             608.26,434.28 613.11,432.48 617.00,431.48
             626.66,428.99 632.28,429.00 642.00,429.00 Z
           M 667.00,397.09
           C 667.00,397.09 690.00,397.09 690.00,397.09
             695.08,397.88 696.55,400.35 700.00,399.89
             700.00,399.89 709.00,396.49 709.00,396.49
             717.90,394.05 731.46,394.66 739.00,400.42
             747.45,406.86 748.03,413.41 749.28,423.00
             749.28,423.00 750.00,477.00 750.00,477.00
             746.32,477.00 732.04,477.95 730.02,475.40
             728.77,473.81 729.00,469.99 729.05,468.00
             729.05,468.00 729.05,452.00 729.05,452.00
             729.02,438.59 730.96,441.71 729.05,425.00
             728.81,421.66 728.96,419.20 727.43,416.00
             722.45,405.60 707.55,404.28 702.02,415.02
             700.81,417.37 701.01,420.41 701.00,423.00
             701.00,423.00 701.00,448.00 701.00,448.00
             701.00,448.00 701.00,477.00 701.00,477.00
             697.42,477.00 684.03,477.93 682.02,475.40
             680.77,473.81 681.00,469.99 681.00,468.00
             681.00,468.00 681.00,426.00 681.00,426.00
             681.00,421.44 681.74,411.80 679.15,408.23
             676.35,404.37 671.20,405.00 667.00,405.00
             667.00,405.00 667.00,397.09 667.00,397.09 Z
           M 774.00,461.00
           C 771.88,457.50 769.95,454.28 770.62,450.00
             771.09,446.93 772.97,444.71 772.43,442.58
             772.43,442.58 767.36,435.00 767.36,435.00
             765.01,430.84 763.81,424.76 764.09,420.00
             764.25,417.32 765.18,412.49 766.13,410.00
             771.96,394.62 791.45,395.00 805.00,395.00
             805.00,395.00 830.00,395.00 830.00,395.00
             829.97,401.78 830.52,402.81 824.00,405.00
             825.70,407.42 827.90,410.28 829.00,413.00
             830.66,417.10 830.85,421.68 830.27,426.00
             828.58,438.37 821.95,444.40 810.00,446.99
             802.44,448.62 788.25,445.92 784.00,453.00
             784.00,453.00 798.00,454.83 798.00,454.83
             809.00,455.89 820.28,455.63 828.67,464.30
             838.97,474.95 837.03,494.90 825.00,503.35
             818.88,507.66 805.48,509.99 798.00,509.99
             787.92,509.99 772.46,507.42 765.33,499.82
             754.00,487.74 758.68,467.00 774.00,461.00 Z
           M 863.00,442.00
           C 863.31,456.00 871.66,471.24 888.00,466.20
             895.59,463.86 898.95,457.31 902.04,455.74
             905.48,453.99 909.31,457.02 909.18,460.09
             909.08,462.38 906.15,466.27 904.68,467.98
             899.08,474.52 889.56,478.61 881.00,478.96
             857.60,479.91 842.28,464.10 842.00,441.00
             841.85,427.59 842.83,415.64 852.32,405.09
             865.28,390.68 892.70,391.63 904.47,407.00
             912.42,417.37 911.00,429.78 911.00,442.00
             911.00,442.00 863.00,442.00 863.00,442.00 Z
           M 913.00,397.09
           C 913.00,397.09 934.00,397.09 934.00,397.09
             939.25,397.91 940.80,400.64 944.00,400.29
             945.74,400.10 948.96,397.93 951.00,397.14
             955.41,395.43 961.32,394.69 966.00,395.44
             971.31,396.29 982.60,401.57 978.93,408.70
             977.62,411.26 973.44,413.59 971.00,415.00
             969.07,413.29 967.48,411.68 965.00,410.74
             959.31,408.57 950.04,410.21 947.02,416.02
             945.81,418.35 946.01,421.43 946.00,424.00
             946.00,424.00 946.00,477.00 946.00,477.00
             946.00,477.00 926.00,477.00 926.00,477.00
             926.00,477.00 926.00,420.00 926.00,420.00
             925.99,415.54 926.27,410.66 922.72,407.31
             919.62,404.38 916.51,405.51 914.60,403.98
             912.73,402.48 913.03,399.16 913.00,397.09 Z
           M 218.00,403.00
           C 224.19,396.34 229.41,395.90 238.00,396.00
             247.46,396.11 252.18,399.43 254.00,409.00
             252.00,410.24 248.22,413.04 246.00,413.18
             242.59,413.40 240.56,409.98 235.00,409.34
             229.52,408.71 222.63,411.57 220.60,417.00
             219.89,418.91 220.00,421.94 220.00,424.00
             220.00,424.00 220.00,469.00 220.00,469.00
             219.96,475.43 219.84,476.87 213.00,477.00
             213.00,477.00 201.00,477.00 201.00,477.00
             201.00,477.00 201.00,420.00 201.00,420.00
             200.88,410.09 198.94,404.28 188.00,404.00
             188.00,404.00 188.00,397.00 188.00,397.00
             199.86,397.00 208.58,394.64 218.00,403.00 Z
           M 410.08,441.00
           C 410.08,441.00 372.00,441.00 372.00,441.00
             369.57,441.00 365.42,440.68 363.56,442.60
             361.77,444.61 362.84,448.63 363.56,451.00
             365.31,457.68 370.10,465.05 377.00,467.20
             383.49,469.22 390.83,466.56 395.83,462.32
             398.52,460.04 402.69,453.85 406.67,456.79
             410.40,459.55 406.74,464.50 404.67,467.00
             398.38,474.59 390.72,477.88 381.00,478.00
             372.97,478.09 366.07,477.95 359.00,473.44
             337.08,459.46 336.73,417.17 357.00,401.53
             364.47,395.77 371.14,395.90 380.00,396.00
             400.64,396.25 408.27,408.07 410.08,427.00
             410.93,434.62 411.44,432.98 410.08,441.00 Z
           M 292.00,406.34
           C 277.45,410.58 277.98,427.77 278.00,440.00
             278.01,445.49 278.23,448.64 279.75,454.00
             282.22,462.75 288.14,469.62 298.00,467.52
             302.35,466.59 306.83,463.25 308.40,459.00
             309.32,456.52 309.00,448.10 309.00,445.00
             309.00,445.00 309.00,416.00 309.00,416.00
             308.81,406.02 300.09,405.40 292.00,406.34 Z
           M 375.00,406.40
           C 367.53,408.81 364.65,414.74 362.90,422.00
             362.34,424.32 361.40,428.23 363.60,429.98
             365.71,431.66 378.66,431.01 382.00,431.00
             383.99,431.00 387.81,431.23 389.40,429.98
             391.87,428.02 390.74,422.62 390.10,420.00
             388.04,411.50 384.79,405.31 375.00,406.40 Z
           M 794.00,406.34
           C 791.39,407.05 789.55,407.53 787.57,409.56
             782.74,414.47 780.15,436.08 796.00,436.96
             815.41,438.03 812.27,413.66 805.87,408.51
             802.42,405.73 798.14,405.87 794.00,406.34 Z
           M 891.00,430.00
           C 890.51,424.02 889.14,413.66 884.61,409.43
             879.84,404.97 872.39,406.41 868.41,411.11
             864.26,416.02 863.06,423.79 863.00,430.00
             863.00,430.00 891.00,430.00 891.00,430.00 Z
           M 162.00,440.00
           C 156.77,440.00 154.20,439.97 149.00,441.24
             146.62,441.82 144.10,442.63 142.04,443.99
             135.57,448.26 134.18,458.11 140.22,463.43
             146.46,468.93 157.09,467.64 160.98,460.00
             162.19,457.61 161.99,454.62 162.00,452.00
             162.00,452.00 162.00,440.00 162.00,440.00 Z
           M 642.00,440.00
           C 637.53,440.04 634.39,440.35 630.00,441.29
             627.19,441.88 624.36,442.75 622.04,444.51
             620.46,445.71 619.08,447.22 618.17,449.00
             617.11,451.09 616.91,453.70 617.11,456.00
             618.22,468.98 637.06,469.85 641.26,459.00
             642.13,456.75 642.00,453.43 642.00,451.00
             642.00,451.00 642.00,440.00 642.00,440.00 Z
           M 790.00,466.39
           C 778.92,469.98 775.83,484.40 782.80,492.67
             786.06,496.53 791.16,497.77 796.00,497.96
             801.28,498.17 806.78,497.25 810.87,493.61
             816.49,488.60 816.44,476.80 811.44,471.34
             806.58,466.01 796.69,465.48 790.00,466.39 Z" />
</svg>
